<?xml version="1.0" standalone="no"?><!DOCTYPE svg PUBLIC "-//W3C//DTD SVG 1.1//EN" "http://www.w3.org/Graphics/SVG/1.1/DTD/svg11.dtd"><svg t="1729310494985" class="icon" viewBox="0 0 1024 1024" version="1.1" xmlns="http://www.w3.org/2000/svg" p-id="2385" xmlns:xlink="http://www.w3.org/1999/xlink" width="200" height="200"><path d="M870.969 726.638v-103.5h-103.2v103.5h-103.5v103.2h103.5v103.5h103.2v-103.5h103.5v-103.2z" p-id="2386"></path><path d="M607.055 778.238c0-98.443 68.018-180.986 159.618-203.234a410.865 410.865 0 0 0-96.837-57.683c-11-4.7-22.2-8.8-33.5-12.5 63.3-40.6 105.2-111.6 105.2-192.3 0-126.1-102.2-228.3-228.3-228.3s-228.5 102.1-228.5 228.2c0 79.6 40.7 149.6 102.4 190.5-13.3 4.1-26.4 8.9-39.3 14.3-49.2 20.8-93.4 50.6-131.3 88.5-37.9 37.9-67.7 82.1-88.5 131.3-21.6 51-32.5 105.1-32.5 160.9v48H691.182c-51.065-38.135-84.127-99.047-84.127-167.683z" p-id="2387"></path></svg>