<?xml version="1.0" standalone="no"?><!DOCTYPE svg PUBLIC "-//W3C//DTD SVG 1.1//EN" "http://www.w3.org/Graphics/SVG/1.1/DTD/svg11.dtd"><svg t="1729158804959" class="icon" viewBox="0 0 1025 1024" version="1.1" xmlns="http://www.w3.org/2000/svg" p-id="3939" xmlns:xlink="http://www.w3.org/1999/xlink" width="200.1953125" height="200"><path d="M601.443784 511.764127 1004.970258 915.290601C1029.756897 940.07724 1029.756897 980.215603 1004.970258 1004.970258 980.215603 1029.756897 940.07724 1029.756897 915.290601 1004.970258L511.764127 601.443784 108.237653 1004.970258C83.482997 1029.756897 43.344635 1029.756897 18.589979 1004.970258-6.19666 980.215603-6.19666 940.07724 18.589979 915.290601L422.116453 511.764127 18.589979 108.237653C-6.19666 83.482997-6.19666 43.344635 18.589979 18.589979 43.344635-6.19666 83.482997-6.19666 108.237653 18.589979L511.764127 422.116453 915.290601 18.589979C940.07724-6.19666 980.215603-6.19666 1004.970258 18.589979 1029.756897 43.344635 1029.756897 83.482997 1004.970258 108.237653L601.443784 511.764127Z" p-id="3940"></path></svg>