<?xml version="1.0" standalone="no"?><!DOCTYPE svg PUBLIC "-//W3C//DTD SVG 1.1//EN" "http://www.w3.org/Graphics/SVG/1.1/DTD/svg11.dtd"><svg t="1730028414741" class="icon" viewBox="0 0 1024 1024" version="1.1" xmlns="http://www.w3.org/2000/svg" p-id="2391" xmlns:xlink="http://www.w3.org/1999/xlink" width="200" height="200"><path d="M512 0C229.180952 0 0 229.180952 0 512s229.180952 512 512 512 512-229.180952 512-512S794.819048 0 512 0z m192.609524 394.971429c0 58.514286-46.32381 107.27619-104.838095 107.27619s-104.838095-46.32381-104.838096-107.27619 46.32381-109.714286 104.838096-107.276191c58.514286 0 104.838095 48.761905 104.838095 107.276191zM441.295238 219.428571c41.447619 0 78.019048 21.942857 95.085714 56.076191-7.314286 2.438095-12.190476 4.87619-17.066666 9.752381-36.571429 24.380952-60.952381 65.828571-60.952381 112.152381 0 12.190476 2.438095 24.380952 4.87619 36.571428-7.314286 2.438095-14.628571 2.438095-21.942857 2.438096-58.514286 0-107.27619-46.32381-107.27619-107.276191S380.342857 219.428571 441.295238 219.428571zM219.428571 665.6c0-114.590476 99.961905-207.238095 221.866667-207.238095 9.752381 0 21.942857 0 31.695238 2.438095 12.190476 24.380952 34.133333 43.885714 58.514286 56.07619-26.819048 4.87619-51.2 14.628571-73.142857 29.257143-58.514286 31.695238-99.961905 80.457143-119.466667 143.847619-75.580952-9.752381-119.466667-24.380952-119.466667-24.380952z m375.466667 104.838095c-138.971429 0-224.304762-29.257143-224.304762-29.257143 0-112.152381 97.52381-204.8 216.990476-204.8s216.990476 92.647619 216.990477 204.8c0 0-70.704762 29.257143-209.676191 29.257143z" fill="#F29432" p-id="2392"></path></svg>